<?xml version="1.0" encoding="UTF-8" standalone="no"?>
<svg
   xmlns:dc="http://purl.org/dc/elements/1.1/"
   xmlns:cc="http://creativecommons.org/ns#"
   xmlns:rdf="http://www.w3.org/1999/02/22-rdf-syntax-ns#"
   xmlns:svg="http://www.w3.org/2000/svg"
   xmlns="http://www.w3.org/2000/svg"
   xmlns:sodipodi="http://sodipodi.sourceforge.net/DTD/sodipodi-0.dtd"
   xmlns:inkscape="http://www.inkscape.org/namespaces/inkscape"
   version="1.1"
   id="svg2"
   xml:space="preserve"
   width="415.74667"
   height="170.08"
   viewBox="0 0 415.74667 170.08"
   sodipodi:docname="HESSOvs_pictos.eps"><metadata
     id="metadata8"><rdf:RDF><cc:Work
         rdf:about=""><dc:format>image/svg+xml</dc:format><dc:type
           rdf:resource="http://purl.org/dc/dcmitype/StillImage" /></cc:Work></rdf:RDF></metadata><defs
     id="defs6" /><sodipodi:namedview
     pagecolor="#ffffff"
     bordercolor="#666666"
     borderopacity="1"
     objecttolerance="10"
     gridtolerance="10"
     guidetolerance="10"
     inkscape:pageopacity="0"
     inkscape:pageshadow="2"
     inkscape:window-width="640"
     inkscape:window-height="480"
     id="namedview4" /><g
     id="g10"
     inkscape:groupmode="layer"
     inkscape:label="ink_ext_XXXXXX"
     transform="matrix(1.3333333,0,0,-1.3333333,0,170.08)"><g
       id="g12"
       transform="scale(0.1)"><path
         d="M 3118.11,0 H 0 V 1275.59 H 3118.11 V 0"
         style="fill:#ffffff;fill-opacity:1;fill-rule:nonzero;stroke:none"
         id="path14" /><path
         d="m 1668.17,227.738 c 0,-13.066 10.59,-23.66 23.66,-23.66 h 262.29 c 13.06,0 23.65,10.594 23.65,23.66 V 490.02 c 0,13.07 -10.59,23.66 -23.65,23.66 h -262.29 c -13.07,0 -23.66,-10.59 -23.66,-23.66 V 227.738"
         style="fill:#00a770;fill-opacity:1;fill-rule:nonzero;stroke:none"
         id="path16" /><path
         d="m 1797,341.227 c 3.78,4.668 9.19,9.425 17.44,15.394 l 36.68,-40.824 c -3.11,-4.109 -6.23,-7.77 -11.93,-11.031 -5.83,-3.321 -11.67,-4.864 -20.13,-5.282 -0.68,-0.035 -1.35,-0.046 -2.04,-0.046 -7.03,0 -13,1.882 -17.76,5.578 -5.75,4.5 -8.58,10.511 -8.91,18.91 -0.3,7.351 1.93,11.445 6.65,17.301 z m 23.26,42.125 c -5.4,5.738 -10.92,12.304 -13.35,15.671 -1.8,2.489 -4.16,6.875 -4.85,11.075 -0.2,1.343 -0.64,5.984 2.56,10.175 1.76,2.29 4.29,4.832 9.88,6.547 1.92,0.59 4.42,0.918 7.01,0.918 2.78,0 5.6,-0.39 7.85,-1.082 4.54,-1.394 7.73,-4.093 9.95,-8.543 3.12,-6.125 1.7,-12.965 -4.07,-19.773 -5.43,-6.41 -9.81,-10.789 -14.98,-14.988 z m 86.4,-92.532 -31.99,34.621 c 1.41,4.536 2.06,8.153 2.89,12.454 1.35,7.171 1.89,18.906 0.61,25.914 -0.4,2.144 -1.26,5.441 -2.96,6.562 -1.56,1.063 -3.25,1.02 -4.4,0.594 -1.41,-0.527 -2.5,-1.664 -2.82,-3.453 -0.52,-2.973 -1.02,-9.164 -1.28,-11.215 -0.13,-0.91 -0.21,-1.664 -0.3,-2.094 -0.42,-2.648 -0.96,-5.301 -1.93,-8.84 -0.65,-2.461 -1.04,-3.722 -2.2,-6.55 l -28.96,31.39 c 7.24,5.863 12.16,10.617 16.42,15.828 7.79,9.61 10.73,16.364 10.82,24.934 0.07,5.515 -0.68,9.437 -2.72,13.98 -0.89,1.989 -2.75,6.106 -7.15,10.047 -4.03,3.606 -8.44,6.035 -12.72,7.637 -4.43,1.668 -8.26,2.75 -15.52,3.047 -2.45,0.097 -5.05,0 -8.08,-0.34 -10.87,-1.164 -20.44,-5.922 -26.92,-13.344 -5.83,-6.609 -7.45,-15.91 -7.5,-21.722 -0.12,-7.719 2.64,-16.469 7.37,-23.442 3.07,-4.551 6.14,-7.676 11.19,-12.879 l 2.63,-2.742 c -11.07,-8.125 -16.93,-13.137 -23.92,-20.457 -8.05,-8.395 -15.34,-17.172 -15.98,-32.344 -0.49,-10.738 4.87,-22.273 13.98,-30.101 8.73,-7.539 21.95,-11.696 37.16,-11.696 2.32,0 4.68,0.098 7.04,0.282 16.3,1.394 24.79,6.797 30.33,11.343 4.57,3.746 8.29,7.071 13.89,15.352 l 19.22,-21.32 0.2,-0.207 h 22.52 c 0.12,0.019 3.15,0.25 4,3.027 0.74,2.453 -2.61,5.445 -2.92,5.734"
         style="fill:#ffffff;fill-opacity:1;fill-rule:nonzero;stroke:none"
         id="path18" /><path
         d="m 571.844,227.738 c 0,-13.066 10.594,-23.66 23.652,-23.66 h 262.297 c 13.062,0 23.656,10.594 23.656,23.66 V 490.02 c 0,13.07 -10.594,23.66 -23.656,23.66 H 595.496 c -13.058,0 -23.652,-10.59 -23.652,-23.66 V 227.738"
         style="fill:#00a5e5;fill-opacity:1;fill-rule:nonzero;stroke:none"
         id="path20" /><path
         d="m 657.602,439.285 c 13.421,0 133.125,0 133.125,0 0,0 1.734,-36.047 1.691,-36.808 -0.125,-1.45 -0.668,-2.961 -2.672,-3.504 -1.476,-0.399 -3.453,0.543 -4.293,3.406 -0.797,2.73 -0.172,4.293 -2.57,9.332 -1.055,2.223 -4.012,5.457 -9.867,8.008 -6.141,2.687 -12.254,2.886 -16.989,2.886 -4.73,0 -54.742,0 -54.742,0 12.582,-18.222 26.496,-39.671 35.653,-53.082 3.312,-4.855 3.867,-6.121 -1.137,-12.617 -7.164,-9.297 -39.805,-50.074 -39.805,-50.074 0,0 51.402,0.012 59.477,0 8.078,-0.004 15.976,0.551 20.031,3.121 5.316,3.387 8.004,9.66 8.769,12.453 0.739,2.774 1.961,5.446 5.231,5.328 2.461,-0.082 2.957,-2.554 2.984,-4.363 0,-0.793 -4.363,-42.465 -4.363,-42.465 0,0 -110.207,0 -130.109,0 -1.789,0 -3.211,0 -3.696,1.203 -0.695,1.778 0.129,3.211 1.465,4.825 8.403,10.199 33.774,40.824 46.809,58.386 5.133,6.887 7.277,9.461 3.883,14.309 -3.27,4.652 -48.161,70.262 -50.422,73.555 -1.633,2.379 -2.215,3.089 -1.481,4.683 0.442,1.008 1.906,1.418 3.028,1.418"
         style="fill:#ffffff;fill-opacity:1;fill-rule:nonzero;stroke:none"
         id="path22" /><path
         d="m 937.285,227.738 c 0,-13.066 10.594,-23.66 23.656,-23.66 h 262.299 c 13.06,0 23.65,10.594 23.65,23.66 V 490.02 c 0,13.07 -10.59,23.66 -23.65,23.66 H 960.941 c -13.062,0 -23.656,-10.59 -23.656,-23.66 V 227.738"
         style="fill:#e20571;fill-opacity:1;fill-rule:nonzero;stroke:none"
         id="path24" /><path
         d="m 1109.15,415.207 h -35.75 c -1.78,-20.727 -3.49,-38.352 -5.14,-51.586 -1.66,-13.234 -3.24,-23.305 -4.74,-32.836 -1.61,-9.515 -3.22,-18.199 -4.85,-26.027 -1.36,-6.125 -3.27,-10.863 -5.93,-14.297 -2.59,-3.457 -6.4,-5.852 -11.4,-7.195 -4.18,-1.016 -8.27,-0.192 -12.38,2.472 -4.04,2.684 -6.45,5.879 -7.32,9.598 -0.61,2.758 -0.78,5.094 -0.46,7.016 0.26,1.91 0.83,3.679 1.7,5.328 0.83,1.64 1.74,3.129 2.81,4.5 0.97,1.328 2.06,2.656 3.18,4.008 0.37,0.414 2.15,2.515 5.41,6.32 3.27,3.816 5.67,7.297 7.35,10.453 1.62,3.129 5.2,10.035 6.99,18.637 1.82,8.597 5.49,38.023 5.41,63.609 -2.74,0 -15.04,0 -15.04,0 -4.24,0 -8.38,-1.394 -12.28,-3.426 -3.79,-1.996 -7.15,-5.367 -8.65,-7.285 -1.6,-1.98 -5.69,-8.613 -6.68,-9.887 -0.96,-1.285 -2.9,-4.234 -4.4,-3.781 -1.62,0.512 -1.26,2.324 -1.01,3.781 0.29,1.45 3.22,8.856 5.41,14.43 2.24,5.629 5.23,11.059 9.04,16.309 2.94,4.465 7,7.621 12.04,10.82 5.09,3.273 10.93,4.895 17.65,4.895 0,0 107.58,0 109.53,0 1.9,0 12.19,-0.817 12.19,-12.829 0,-11.996 -10.93,-13.027 -12.19,-13.027 -1.28,0 -31.1,0 -31.1,0 -2.61,-24.648 -3.89,-50.078 -3.89,-75.019 0,-4.528 0.76,-8.969 2.32,-13.274 1.57,-4.344 3.47,-7.641 5.73,-9.871 2.93,-2.711 6.43,-4.43 10.62,-5.219 4.22,-0.761 8.46,0.539 12.76,3.93 2.38,1.883 4.1,3.988 5.24,6.324 1.06,2.383 1.74,4.688 2.07,6.824 0.29,2.184 0.77,5.239 0.85,5.977 0.09,0.742 -0.05,3.441 3.02,3.676 3.07,0.234 3.38,-2.489 3.66,-5.446 0.26,-2.961 -1.32,-13.964 -3.79,-20.8 -2.47,-6.883 -5.46,-12.375 -8.86,-16.536 -3.42,-4.207 -6.75,-7.207 -10.03,-9.046 -3.74,-2.266 -8.1,-3.629 -13.02,-4.11 -5.01,-0.461 -9.56,0.699 -13.65,3.473 -6.81,4.973 -12.03,12.742 -15.49,23.34 -2.04,6.195 -3.07,14.347 -3.3,24.511 -0.31,10.149 0.03,20.063 0.96,29.754 l 5.41,51.512"
         style="fill:#ffffff;fill-opacity:1;fill-rule:nonzero;stroke:none"
         id="path26" /><path
         d="m 1302.73,227.738 c 0,-13.066 10.59,-23.66 23.65,-23.66 h 262.3 c 13.06,0 23.65,10.594 23.65,23.66 V 490.02 c 0,13.07 -10.59,23.66 -23.65,23.66 h -262.3 c -13.06,0 -23.65,-10.59 -23.65,-23.66 V 227.738"
         style="fill:#f0be07;fill-opacity:1;fill-rule:nonzero;stroke:none"
         id="path28" /><path
         d="m 1372.7,374.113 c -1.91,0.844 -1.88,4.528 0.14,10.114 2.56,6.765 5.26,11.597 9.07,16.347 3.51,4.453 11.28,10.86 17,13.348 5.71,2.5 11.91,3.324 19.72,3.48 9.76,0.2 24.25,-4.746 40.92,-11.484 16.75,-6.719 32.05,-9.887 39.2,-9.785 10.55,0.121 21.16,2.16 30.32,8.484 5.46,3.738 7.67,6.305 10.25,11.414 0.79,1.571 1.82,1.918 2.93,1.309 1.76,-0.977 1.71,-3.399 1.27,-6.606 -2.53,-16.898 -10.02,-26.039 -17.73,-31.148 -3.99,-2.637 -9.92,-6.34 -18.71,-7.336 -8.79,-0.98 -24.1,1.684 -28.95,2.965 -9.5,2.473 -21.08,7.816 -28.02,10.484 -6.88,2.707 -12.13,5.25 -15.66,6.317 -2.78,0.738 -13.74,4.632 -23.77,4.195 -5.49,-0.223 -14.97,-2.219 -22.08,-6.676 -5.93,-3.758 -9.76,-8.535 -12.04,-12.707 -1.05,-1.918 -2.46,-3.375 -3.86,-2.715"
         style="fill:#ffffff;fill-opacity:1;fill-rule:nonzero;stroke:none"
         id="path30" /><path
         d="m 1372.65,302.406 c -1.89,0.852 -1.86,4.528 0.16,10.121 2.54,6.766 5.24,11.602 9.05,16.348 3.53,4.453 11.3,10.859 17.02,13.348 5.7,2.5 11.9,3.324 19.7,3.48 9.78,0.199 24.25,-4.746 40.94,-11.484 16.73,-6.715 32.04,-9.887 39.19,-9.785 10.55,0.121 21.17,2.16 30.32,8.484 5.46,3.738 7.66,6.305 10.25,11.414 0.78,1.57 1.82,1.918 2.93,1.309 1.78,-0.977 1.71,-3.399 1.26,-6.602 -2.53,-16.902 -10,-26.043 -17.71,-31.16 -4.01,-2.637 -9.92,-6.332 -18.7,-7.328 -8.82,-0.988 -24.13,1.679 -28.96,2.965 -9.5,2.464 -21.08,7.82 -28.03,10.484 -6.87,2.707 -12.11,5.25 -15.65,6.316 -2.79,0.743 -13.75,4.633 -23.78,4.196 -5.48,-0.223 -14.96,-2.219 -22.07,-6.676 -5.94,-3.758 -9.78,-8.535 -12.04,-12.707 -1.05,-1.918 -2.47,-3.375 -3.88,-2.723"
         style="fill:#ffffff;fill-opacity:1;fill-rule:nonzero;stroke:none"
         id="path32" /><path
         d="m 205.422,227.738 c 0,-13.058 10.59,-23.66 23.641,-23.66 h 262.308 c 13.067,0 23.656,10.602 23.656,23.66 v 262.278 c 0,13.074 -10.589,23.664 -23.656,23.664 H 229.063 c -13.051,0 -23.641,-10.59 -23.641,-23.664 V 227.738"
         style="fill:#f25b28;fill-opacity:1;fill-rule:nonzero;stroke:none"
         id="path34" /><path
         d="m 339.695,409.953 c 0,16.86 -13.668,30.531 -30.531,30.531 -16.863,0 -30.535,-13.671 -30.535,-30.531 0,-16.863 13.672,-30.531 30.535,-30.531 16.863,0 30.531,13.668 30.531,30.531"
         style="fill:#ffffff;fill-opacity:1;fill-rule:nonzero;stroke:none"
         id="path36" /><path
         d="m 339.695,316.285 c 0,16.86 -13.668,30.531 -30.531,30.531 -16.863,0 -30.535,-13.671 -30.535,-30.531 0,-16.863 13.672,-30.531 30.535,-30.531 16.863,0 30.531,13.668 30.531,30.531"
         style="fill:#ffffff;fill-opacity:1;fill-rule:nonzero;stroke:none"
         id="path38" /><path
         d="M 2044.39,1045.46 C 1889.41,717.031 1893.87,728.125 1889.43,717.035 c -8.53,-17.039 -17.33,-34.683 -39.54,-34.683 -18.32,0 -32.74,15.16 -32.74,34.461 0,10.433 2.22,15.003 9.54,30.14 4.92,10.586 0.32,0.699 148.84,316.957 10.17,21.05 19.95,41.18 42.52,41.18 18.97,0 33.25,-14.35 33.25,-33.32 0,-10.5 -3.31,-18.47 -6.91,-26.31 z m 24.11,26.31 c 0,28.26 -22.21,50.52 -50.45,50.52 -33.39,0 -47.16,-28.48 -57.21,-49.26 4.68,9.98 -0.74,-1.58 -149.31,-317.839 -8.06,-16.75 -11.55,-24.046 -11.55,-38.378 0,-28.954 21.91,-51.637 49.91,-51.637 32.76,0 45.61,25.527 54.97,44.203 l 155.04,328.781 c 4.37,9.36 8.6,19.59 8.6,33.61"
         style="fill:#231f20;fill-opacity:1;fill-rule:nonzero;stroke:none"
         id="path40" /><path
         d="m 2186.48,1045.48 c -154.9,-328.382 -149.26,-320.535 -154.97,-328.398 -8.46,-17.086 -17.26,-34.73 -39.52,-34.73 -18.39,0 -32.72,15.179 -32.72,34.461 0,10.433 2.2,15.003 9.54,30.14 4.85,10.711 0.31,0.699 148.87,316.957 10.18,21.03 19.94,41.18 42.49,41.18 18.95,0 33.36,-14.35 33.36,-33.32 0,-10.5 -3.3,-18.47 -7.05,-26.29 z m -26.31,76.81 c -33.4,0 -47.15,-28.5 -57.21,-49.29 4.77,9.78 -0.76,-1.55 -149.32,-317.809 -8.03,-16.769 -11.56,-24.046 -11.56,-38.378 0,-28.954 21.95,-51.637 49.91,-51.637 32.91,0 45.68,25.527 54.99,44.293 l 155.08,328.691 c 4.2,8.91 8.59,19.59 8.59,33.61 0,28.26 -22.17,50.52 -50.48,50.52"
         style="fill:#231f20;fill-opacity:1;fill-rule:nonzero;stroke:none"
         id="path42" /><path
         d="m 2303.31,925.441 c 2.79,-6.796 6.42,-12.371 15.79,-12.371 9.35,0 12.99,5.575 15.79,12.371 l 46.66,118.679 c 1.04,2.78 1.47,4.9 1.47,7.87 0,8.96 -7.82,15.37 -16.37,15.37 -7.24,0 -11.74,-4.68 -14.49,-10.45 l -33.06,-88.609 -32.98,88.609 c -2.83,5.77 -7.31,10.45 -14.56,10.45 -8.49,0 -16.37,-6.41 -16.37,-15.37 0,-2.97 0.45,-5.09 1.5,-7.87 l 46.62,-118.679"
         style="fill:#231f20;fill-opacity:1;fill-rule:nonzero;stroke:none"
         id="path44" /><path
         d="m 2432.5,1034.13 h 0.38 l 19.85,-61.755 h -40.5 z m -66.89,-107.423 c 0,-8.508 7.22,-14.883 15.75,-14.883 8.7,0 13.14,4.707 15.27,11.293 l 6.44,19.828 h 59.2 l 6.42,-20.039 c 2.15,-6.375 6.63,-11.082 15.56,-11.082 7.94,0 14.69,5.762 14.69,14.039 0,1.52 -0.4,4.477 -1.7,7.918 l -41.77,115.929 c -3.61,10.2 -11.49,17.65 -22.83,17.65 -10.82,0 -19.14,-7.9 -22.75,-17.65 l -42.86,-115.929 c -0.38,-1.054 -1.42,-3.59 -1.42,-7.074"
         style="fill:#231f20;fill-opacity:1;fill-rule:nonzero;stroke:none"
         id="path46" /><path
         d="m 2529.81,914.355 h 53.31 c 9.33,0 14.93,7.032 15.37,14.106 0.19,7.199 -4.52,15.328 -15.37,15.328 h -37.94 v 106.941 c 0,10.66 -6.82,16.63 -16.01,16.63 -9.09,0 -15.98,-5.97 -15.98,-16.63 V 931.84 c 0,-10.664 6.21,-17.485 16.62,-17.485"
         style="fill:#231f20;fill-opacity:1;fill-rule:nonzero;stroke:none"
         id="path48" /><path
         d="m 2672.38,1034.13 h 0.47 l 19.82,-61.755 h -40.53 z m -51.17,-122.306 c 8.74,0 13.25,4.707 15.38,11.293 l 6.4,19.828 h 59.16 l 6.48,-20.039 c 2.14,-6.375 6.61,-11.082 15.52,-11.082 7.89,0 14.74,5.762 14.74,14.039 0,1.52 -0.45,4.477 -1.72,7.918 l -41.75,115.929 c -3.65,10.2 -11.49,17.65 -22.83,17.65 -10.87,0 -19.13,-7.9 -22.78,-17.65 l -42.79,-115.929 c -0.45,-1.054 -1.52,-3.59 -1.52,-7.074 0,-8.508 7.22,-14.883 15.71,-14.883"
         style="fill:#231f20;fill-opacity:1;fill-rule:nonzero;stroke:none"
         id="path50" /><path
         d="m 2785.13,929.727 v 121.003 c 0,10.66 -6.82,16.63 -16.02,16.63 -9.11,0 -15.97,-5.97 -15.97,-16.63 V 929.727 c 0,-10.704 6.86,-16.637 15.97,-16.637 9.2,0 16.02,5.933 16.02,16.637"
         style="fill:#231f20;fill-opacity:1;fill-rule:nonzero;stroke:none"
         id="path52" /><path
         d="m 2855.41,941.273 c -13.83,0 -25.78,8.301 -35.74,8.301 -8.76,0 -14.26,-6.844 -14.26,-15.117 0,-20.016 35.31,-23.879 51.73,-23.879 29.4,0 54.58,18.981 54.58,49.445 0,54.957 -71.2,40.917 -71.2,62.857 0,8.95 8.3,13.85 17.49,13.85 12.77,0 19.55,-6.4 28.29,-6.4 8.78,0 14.33,7.47 14.33,15.73 0,16.85 -29.85,21.3 -41.71,21.3 -28.42,0 -52.89,-18.51 -52.89,-48.32 0,-49.431 71.11,-34.313 71.11,-59.438 0,-10.473 -7.64,-18.329 -21.73,-18.329"
         style="fill:#231f20;fill-opacity:1;fill-rule:nonzero;stroke:none"
         id="path54" /><path
         d="m 2427.76,860.273 c 0,6.821 -5.68,14.059 -15.12,14.059 -10.17,0 -15.05,-5.93 -16.99,-15.367 l -18.1,-90.512 h -0.46 l -27.7,93.32 c -2.35,7.684 -8.79,12.559 -16.58,12.559 -7.89,0 -14.35,-4.875 -16.65,-12.559 l -27.7,-93.32 h -0.43 l -18.13,90.512 c -1.86,9.437 -6.76,15.367 -17.01,15.367 -9.45,0 -15.15,-7.238 -15.15,-14.059 0,-3.019 0.19,-4.476 0.86,-7.265 l 27.05,-116.289 c 2.14,-8.992 9.21,-16.614 21.12,-16.614 10.41,0 18.5,6.797 21.09,15.559 l 24.68,82.172 h 0.46 l 24.71,-82.172 c 2.59,-8.762 10.68,-15.559 21.07,-15.559 11.97,0 19.02,7.622 21.17,16.614 l 26.98,116.289 c 0.66,2.789 0.83,4.246 0.83,7.265"
         style="fill:#231f20;fill-opacity:1;fill-rule:nonzero;stroke:none"
         id="path56" /><path
         d="m 2468.65,780.594 20.37,61.797 h 0.32 l 19.85,-61.797 z m 43.34,77.293 c -3.66,10.301 -11.56,17.734 -22.76,17.734 -10.97,0 -19.25,-7.875 -22.86,-17.734 L 2423.56,742.02 c -0.38,-1.079 -1.48,-3.653 -1.48,-7.032 0,-8.527 7.2,-14.883 15.69,-14.883 8.69,0 13.22,4.645 15.37,11.231 l 6.44,19.805 h 59.17 l 6.44,-19.973 c 2.14,-6.418 6.61,-11.063 15.53,-11.063 7.91,0 14.73,5.743 14.73,14.059 0,1.481 -0.45,4.414 -1.69,7.856 l -41.77,115.867"
         style="fill:#231f20;fill-opacity:1;fill-rule:nonzero;stroke:none"
         id="path58" /><path
         d="m 2639.63,749.559 h -37.94 v 106.933 c 0,10.684 -6.87,16.617 -16.04,16.617 -9.11,0 -15.95,-5.933 -15.95,-16.617 V 737.605 c 0,-10.64 6.23,-17.5 16.66,-17.5 h 53.27 c 9.31,0 14.9,7.051 15.27,14.04 0.29,7.285 -4.42,15.414 -15.27,15.414"
         style="fill:#231f20;fill-opacity:1;fill-rule:nonzero;stroke:none"
         id="path60" /><path
         d="m 2734.63,749.559 h -37.93 v 106.933 c 0,10.684 -6.83,16.617 -16.01,16.617 -9.12,0 -15.93,-5.933 -15.93,-16.617 V 737.605 c 0,-10.64 6.2,-17.5 16.63,-17.5 h 53.24 c 9.36,0 14.89,7.051 15.31,14.04 0.25,7.285 -4.52,15.414 -15.31,15.414"
         style="fill:#231f20;fill-opacity:1;fill-rule:nonzero;stroke:none"
         id="path62" /><path
         d="m 2775.76,874.355 c -9.16,0 -16,-5.933 -16,-16.617 V 736.719 c 0,-10.641 6.84,-16.614 16,-16.614 9.16,0 15.98,5.973 15.98,16.614 v 121.019 c 0,10.684 -6.82,16.617 -15.98,16.617"
         style="fill:#231f20;fill-opacity:1;fill-rule:nonzero;stroke:none"
         id="path64" /><path
         d="m 2840.51,832.402 c 0,8.973 8.3,13.852 17.46,13.852 12.82,0 19.64,-6.379 28.34,-6.379 8.78,0 14.31,7.434 14.31,15.73 0,16.848 -29.83,21.325 -41.8,21.325 -28.31,0 -52.78,-18.535 -52.78,-48.328 0,-49.465 71.1,-34.309 71.1,-59.497 0,-10.406 -7.64,-18.324 -21.68,-18.324 -13.91,0 -25.78,8.321 -35.8,8.321 -8.75,0 -14.29,-6.801 -14.29,-15.122 0,-20.011 35.36,-23.875 51.78,-23.875 29.43,0 54.57,18.981 54.57,49.446 0,54.976 -71.21,40.918 -71.21,62.851"
         style="fill:#231f20;fill-opacity:1;fill-rule:nonzero;stroke:none"
         id="path66" /><path
         d="m 1400.9,874.09 -18.35,5.316 c -31.8,9.102 -52.75,15.407 -52.75,36.063 0,14.98 12.86,25.086 28.15,28.953 7.67,1.937 14.87,2.375 22.02,2.375 33.21,0 53.17,-11.527 65.95,-19.246 l 4.54,1.941 c 1.62,18.301 2.15,20.192 4.16,38.031 l -2.54,3.383 c -9.25,3.375 -35.79,13.453 -73.63,13.453 -57.27,0 -103.27,-24.57 -103.27,-74.171 0,-49.614 46,-63.575 66.98,-69.809 l 16.35,-5.281 c 31.18,-9.676 53.14,-16.871 53.14,-39.012 0,-14.918 -14.77,-36.133 -55.22,-36.133 -39.35,0 -61.87,16.379 -71.09,23.113 l -5.06,-1.484 c -1.03,-19.215 -1.03,-21.629 -3.08,-40.406 l 2.5,-4.371 c 2.58,-0.918 5.17,-1.918 7.73,-2.852 19.41,-7.254 42.37,-12.062 70.03,-12.062 18.43,0 54.71,1.425 81.82,23.101 20.97,15.918 28.64,37.571 28.64,56.848 0,51.082 -46.52,65.988 -67.02,72.25"
         style="fill:#231f20;fill-opacity:1;fill-rule:nonzero;stroke:none"
         id="path68" /><path
         d="m 1696.44,790.746 c -14.82,-26.449 -39.34,-32.25 -58.22,-32.25 -10.3,0 -21.05,1.93 -30.17,6.281 -40.45,19.239 -40.96,67.887 -40.96,87.157 0,20.257 1.54,48.171 15.36,67.902 17.86,26.937 46.56,27.934 56.21,27.934 28.67,0 45.04,-12.5 54.78,-27.43 12.74,-21.223 14.83,-53.5 14.83,-65.52 0.52,-10.136 0,-42.422 -11.83,-64.074 z m -55.2,193.613 c -51.12,0 -80.74,-19.714 -95.12,-33.671 -34.22,-32.247 -35.25,-79.454 -35.25,-97.766 0,-15.926 0.49,-65.016 35.25,-98.25 16.37,-15.961 45.55,-32.324 91.54,-32.324 35.81,0 65.99,8.215 88.43,29.406 16.97,15.894 27.66,34.652 33.25,58.289 3.62,14.426 4.66,30.359 4.66,46.711 -1.04,33.687 -7.66,67.437 -31.19,92.93 -22.54,24.105 -56.78,34.675 -91.57,34.675"
         style="fill:#231f20;fill-opacity:1;fill-rule:nonzero;stroke:none"
         id="path70" /><path
         d="m 1186.39,883.23 c -16.86,0 -30.42,-13.636 -30.42,-30.429 0,-16.805 13.56,-30.414 30.42,-30.414 16.81,0 30.42,13.609 30.42,30.414 0,16.793 -13.61,30.429 -30.42,30.429"
         style="fill:#231f20;fill-opacity:1;fill-rule:nonzero;stroke:none"
         id="path72" /><path
         d="m 516.242,1064.44 -2.531,2.92 c -40.91,-1.44 -47.559,-1.44 -90.496,-1.44 l -2.578,-2.88 c 3.605,-54.45 3.605,-68.388 4.101,-125.224 -22.496,-0.503 -45,-0.984 -68.019,-0.984 -17.903,0 -36.274,0.481 -54.164,0.481 l 1.008,127.127 -2.579,2.92 c -39.351,-1.44 -47.031,-1.44 -91.515,-1.44 l -3.067,-2.88 c 2.575,-49.63 5.676,-108.86 5.676,-228.31 0,-43.347 -1.086,-66.929 -2.07,-107.382 l 2.539,-2.922 c 37.316,1.457 46.531,1.98 91.527,1.457 l 2.555,2.871 c -3.066,59.719 -3.551,77.105 -4.074,146.891 22.48,0.972 41.39,1.472 61.398,1.472 20.375,0 40.82,-0.5 61.309,-1 1.031,-64.996 1.031,-80.859 -1.543,-148.769 l 2.574,-2.922 c 38.355,1.457 48.566,1.98 92.031,1.457 l 2.508,2.871 c -4.074,80.957 -5.574,161.363 -5.574,242.305 0,33.711 0.515,56.371 0.984,93.381"
         style="fill:#231f20;fill-opacity:1;fill-rule:nonzero;stroke:none"
         id="path74" /><path
         d="m 657.781,883.359 c 1.559,14.938 5.129,35.172 24.586,46.746 6.137,3.836 13.305,5.278 20.446,5.278 16.859,0 27.05,-8.141 32.726,-16.852 7.164,-10.586 7.625,-22.129 7.625,-33.242 z m 85.383,99.258 c -12.719,3.332 -24.496,4.328 -36.266,4.328 -80.261,0 -133.468,-49.632 -133.468,-132.953 0,-22.656 4.121,-46.222 12.25,-63.09 29.691,-65.031 99.199,-70.82 136.078,-70.82 42.351,0 60.836,7.289 87.887,17.344 l 3.113,3.894 3.57,54.391 -3.57,1.461 c -19.445,-9.656 -42.524,-20.711 -79.817,-20.711 -30.668,0 -51.613,9.164 -63.918,26.539 -7.66,10.055 -9.179,19.648 -11.242,29.293 l 165.188,2.934 3.078,3.316 c -0.504,23.645 -1.02,47.734 -8.219,71.801 -17.855,56.855 -57.23,68.359 -74.664,72.273"
         style="fill:#231f20;fill-opacity:1;fill-rule:nonzero;stroke:none"
         id="path76" /><path
         d="m 1028.53,883.359 -25.06,8.688 c -17.384,5.773 -31.247,11.094 -31.247,24.543 0,5.793 4.062,21.687 35.847,21.687 31.2,0 51.14,-12.547 63.92,-20.269 l 4.59,1.504 5.1,52.476 -2.56,2.887 c -24.02,6.242 -44.97,12.094 -78.19,12.094 -25.043,0 -75.192,-1.977 -101.774,-38.09 -6.66,-8.672 -13.804,-23.149 -13.804,-42.391 0,-51.566 42.445,-66.961 66.472,-75.59 l 19.391,-6.734 c 13.828,-4.363 36.345,-11.609 36.345,-28.906 0,-12.07 -11.79,-25.047 -40.384,-25.047 -14.321,0 -35.317,4.328 -54.168,13.437 -8.699,4.321 -12.84,7.758 -20.512,13.524 l -4.625,-1.914 c -1.008,-25.047 -1.488,-30.371 -3.523,-54.465 l 2.515,-4.305 c 25.071,-8.687 46.543,-16.383 83.86,-16.383 38.897,0 115.587,6.739 124.747,75.606 0.54,3.887 0.54,7.266 0.54,10.609 0,52.942 -39.33,66.93 -67.48,77.039"
         style="fill:#231f20;fill-opacity:1;fill-rule:nonzero;stroke:none"
         id="path78" /></g></g></svg>
